#!OML:ASF F:\VICON\USERDATA\INSTALL\rory3\rory3.ASF
:FULLY-SPECIFIED
:DEGREES
329
root 5.04985 17.0936 2.2529 8.60349 -10.0858 -7.04524
lowerback 13.5803 -1.39033 4.2832
upperback 2.90641 -1.1497 1.91057
thorax -4.58873 -0.615818 -0.212331
lowerneck -13.8774 -0.226968 -1.61008
upperneck 41.031 0.0592548 -0.402005
head 17.3965 -0.380291 0.0878867
rclavicle 9.0447e-015 -2.38542e-014
rhumerus -32.0998 0.816396 -33.1855
rradius 53.8151
rwrist -4.10009
rhand -13.786 -45.9017
rfingers 7.12502
rthumb 12.3355 -75.5178
lclavicle 9.0447e-015 -2.38542e-014
lhumerus -14.435 5.19866 20.9521
lradius 34.3203
lwrist 25.5984
lhand -25.5289 -21.5272
lfingers 7.12502
lthumb 1.00071 8.45022
rfemur -97.169 0.541369 23.8514
rtibia 117.996
rfoot 52.0685 4.10357
rtoes -0.613701
lfemur -27.5336 3.55631 -23.1719
ltibia 38.901
lfoot -17.6556 7.53248
ltoes 15.55
330
root 5.05124 17.0864 2.24764 8.69595 -10.0992 -7.12778
lowerback 13.7018 -1.37934 4.32631
upperback 2.91386 -1.12231 1.90574
thorax -4.64718 -0.603648 -0.24391
lowerneck -13.9886 -0.233046 -1.63873
upperneck 41.1163 0.019062 -0.298968
head 17.4746 -0.387844 0.132315
rclavicle -2.27608e-014 2.38542e-014
rhumerus -32.2615 0.513067 -33.2524
rradius 53.1467
rwrist -4.28312
rhand -13.3632 -46.4014
rfingers 7.12502
rthumb 12.7431 -75.9926
lclavicle -2.27608e-014 2.38542e-014
lhumerus -14.5386 5.85215 21.1921
lradius 33.7788
lwrist 25.2142
lhand -25.561 -21.4266
lfingers 7.12502
lthumb 0.969754 8.55091
rfemur -97.6892 0.508948 24.0753
rtibia 117.945
rfoot 51.7219 3.42614
rtoes -1.99578
lfemur -27.7156 3.61248 -23.101
ltibia 39.0042
lfoot -17.6814 7.52506
ltoes 15.4021
331
root 5.05328 17.0858 2.23971 8.76593 -10.2031 -7.21432
lowerback 13.8173 -1.31008 4.34925
upperback 2.99179 -1.02547 1.88358
thorax -4.62525 -0.555478 -0.296068
lowerneck -14.3782 -0.30073 -1.77607
upperneck 41.3556 -0.16007 0.0122951
head 17.7179 -0.440757 0.266325
rclavicle -1.15295e-014 8.74653e-015
rhumerus -32.448 0.111311 -33.3085
rradius 52.6551
rwrist -4.56472
rhand -13.4537 -45.3674
rfingers 7.12502
rthumb 12.6558 -74.964
lclavicle -1.15295e-014 8.74653e-015
lhumerus -15.0212 5.58388 21.4505
lradius 34.1116
lwrist 25.9934
lhand -25.4989 -21.7395
lfingers 7.12502
lthumb 1.02973 8.23774
rfemur -98.1477 0.560908 24.3075
rtibia 117.801
rfoot 51.6189 3.18031
rtoes -3.15312
lfemur -27.854 3.71106 -23.022
ltibia 39.0768
lfoot -17.6971 7.50938
ltoes 15.7773
332
root 5.05742 17.0908 2.2369 8.7743 -10.3041 -7.28453
lowerback 14.055 -1.27397 4.32516
upperback 3.01032 -0.968054 1.87922
thorax -4.73306 -0.528489 -0.292991
lowerneck -14.6376 -0.309726 -1.70152
upperneck 41.4641 -0.201067 0.0294012
head 17.8508 -0.444106 0.252558
rclavicle -2.96189e-014 -7.95139e-016
rhumerus -32.6996 0.0293518 -33.3589
rradius 52.2804
rwrist -4.6762
rhand -13.5482 -44.6209
rfingers 7.12502
rthumb 12.5647 -74.2231
lclavicle -2.96189e-014 -7.95139e-016
lhumerus -15.6323 5.51938 21.5998
lradius 34.2585
lwrist 25.9067
lhand -25.5571 -21.8158
lfingers 7.12502
lthumb 0.973507 8.16174
rfemur -98.4632 0.560262 24.5466
rtibia 117.587
rfoot 51.6267 4.08605
rtoes -4.19372
lfemur -27.8511 3.8105 -22.9667
ltibia 39.0923
lfoot -17.6875 7.4769
ltoes 16.2701
333
root 5.06087 17.0923 2.24216 8.66456 -10.4379 -7.30889
lowerback 13.9448 -1.224 4.32264
upperback 3.2973 -0.924282 1.84306
thorax -4.36871 -0.499303 -0.343565
lowerneck -14.8225 -0.308499 -1.65546
upperneck 41.2629 -0.195383 0.00634747
head 17.7819 -0.434587 0.235045
rclavicle 1.10325e-014 -3.97569e-015
rhumerus -32.8576 -0.287162 -33.3765
rradius 51.8859
rwrist -4.48438
rhand -14.3376 -44.2986
rfingers 7.12502
rthumb 11.8036 -73.946
lclavicle 1.10325e-014 -3.97569e-015
lhumerus -16.0373 5.88626 21.7553
lradius 34.3878
lwrist 25.5068
lhand -26.2874 -20.04
lfingers 7.12502
lthumb 0.268146 9.93961
rfemur -98.5925 0.55949 24.71
rtibia 117.394
rfoot 51.7976 4.52858
rtoes -4.14213
lfemur -27.6761 3.98361 -22.967
ltibia 39.0696
lfoot -17.7192 7.47848
ltoes 16.1394
334
root 5.06321 17.092 2.24919 8.46923 -10.6024 -7.27204
lowerback 14.0687 -1.16441 4.20309
upperback 3.45397 -0.863276 1.83156
thorax -4.26719 -0.465607 -0.29908
lowerneck -14.9167 -0.368445 -1.89156
upperneck 41.3235 -0.288398 0.206555
head 17.8451 -0.481823 0.352933
rclavicle -4.3832e-014 5.56597e-015
rhumerus -33.126 -0.405292 -33.2937
rradius 51.4537
rwrist -4.34177
rhand -14.9789 -43.9534
rfingers 7.12502
rthumb 11.1851 -73.6353
lclavicle -4.3832e-014 5.56597e-015
lhumerus -16.5996 6.008 21.9608
lradius 34.5341
lwrist 25.2078
lhand -26.6062 -19.0807
lfingers 7.12502
lthumb -0.0397263 10.899
rfemur -98.6579 0.592913 24.7896
rtibia 117.246
rfoot 51.6498 5.05695
rtoes -4.15473
lfemur -27.417 4.22862 -23.0294
ltibia 39.0511
lfoot -17.815 7.46199
ltoes 15.4319
335
root 5.06484 17.0879 2.25014 8.32444 -10.7006 -7.18462
lowerback 14.2935 -1.10821 4.03325
upperback 3.5258 -0.804585 1.81836
thorax -4.30981 -0.435494 -0.224946
lowerneck -15.0672 -0.476253 -2.13156
upperneck 41.5265 -0.443234 0.380905
head 18.0098 -0.559585 0.448131
rclavicle 1.15295e-014 -3.69739e-014
rhumerus -33.3631 -0.679206 -33.1621
rradius 50.8866
rwrist -4.10586
rhand -14.8986 -44.4869
rfingers 7.12502
rthumb 11.2625 -74.1646
lclavicle 1.15295e-014 -3.69739e-014
lhumerus -16.8418 6.40914 22.1946
lradius 34.0309
lwrist 24.6031
lhand -26.3781 -20.5822
lfingers 7.12502
lthumb 0.180564 9.39752
rfemur -98.869 0.552326 24.8317
rtibia 117.153
rfoot 50.7781 6.57957
rtoes -5.39533
lfemur -27.273 4.50178 -23.1455
ltibia 39.067
lfoot -17.8832 7.33524
ltoes 14.8383
336
root 5.06612 17.0805 2.24975 8.2512 -10.7942 -7.214
lowerback 14.4998 -1.06867 3.97541
upperback 3.57925 -0.751103 1.83338
thorax -4.36281 -0.409174 -0.183512
lowerneck -15.0936 -0.506723 -2.19349
upperneck 41.5239 -0.466952 0.380711
head 18.0164 -0.578667 0.454752
rclavicle -1.72943e-014 -1.19271e-015
rhumerus -33.5101 -1.01778 -33.0489
rradius 50.265
rwrist -3.52226
rhand -14.668 -45.4211
rfingers 7.12502
rthumb 11.4849 -75.0865
lclavicle -1.72943e-014 -1.19271e-015
lhumerus -17.0573 6.79015 22.4214
lradius 33.4523
lwrist 24.2086
lhand -26.515 -21.719
lfingers 7.12502
lthumb 0.048315 8.26073
rfemur -99.1017 0.54982 24.9784
rtibia 117.043
rfoot 51.2236 5.22689
rtoes -4.90935
lfemur -27.2089 4.87601 -23.1574
ltibia 39.1172
lfoot -17.9393 7.18753
ltoes 14.5392
337
root 5.07079 17.078 2.25047 8.16673 -10.8012 -7.3109
lowerback 14.7652 -1.10162 4.02499
upperback 3.61056 -0.772649 1.85102
thorax -4.47468 -0.421554 -0.18499
lowerneck -15.0912 -0.465843 -2.16412
upperneck 41.4587 -0.418157 0.389954
head 17.9758 -0.552962 0.462827
rclavicle 6.55989e-015 -1.11319e-014
rhumerus -33.608 -1.14071 -33.0272
rradius 49.628
rwrist -2.89
rhand -15.0936 -44.8542
rfingers 7.12502
rthumb 11.0744 -74.5421
lclavicle 6.55989e-015 -1.11319e-014
lhumerus -17.7116 6.44424 22.6013
lradius 33.6745
lwrist 24.6571
lhand -27.9061 -20.5097
lfingers 7.12502
lthumb -1.29522 9.46611
rfemur -99.2248 0.437176 25.1963
rtibia 116.874
rfoot 51.5201 4.61074
rtoes -4.71962
lfemur -27.1133 5.11138 -23.0919
ltibia 39.1951
lfoot -18.0133 7.06727
ltoes 14.3543
338
root 5.07732 17.078 2.24509 8.11475 -10.759 -7.33327
lowerback 15.1356 -1.17872 3.95739
upperback 3.55484 -0.859759 1.87044
thorax -4.73627 -0.467558 -0.102971
lowerneck -15.0762 -0.387358 -2.08516
upperneck 41.4962 -0.308083 0.3407
head 17.9913 -0.505238 0.446074
rclavicle 2.5842e-014 2.54444e-014
rhumerus -33.7758 -0.935136 -33.0714
rradius 49.424
rwrist -2.34943
rhand -15.2192 -44.7083
rfingers 7.12502
rthumb 10.9533 -74.4026
lclavicle 2.5842e-014 2.54444e-014
lhumerus -18.615 6.52267 22.5394
lradius 33.3473
lwrist 24.0163
lhand -25.6076 -22.4305
lfingers 7.12502
lthumb 0.924741 7.54726
rfemur -99.422 0.234252 25.3539
rtibia 116.645
rfoot 51.6644 3.9444
rtoes -4.287
lfemur -27.1285 5.1246 -23.0691
ltibia 39.2917
lfoot -18.0861 6.97232
ltoes 14.4693
339
root 5.08073 17.0744 2.23794 8.14144 -10.8034 -7.3811
lowerback 15.3402 -1.20783 3.87696
upperback 3.53899 -0.896936 1.89878
thorax -4.86362 -0.486691 -0.0165929
lowerneck -15.1185 -0.34768 -2.0679
upperneck 41.5742 -0.243353 0.312257
head 18.0476 -0.482755 0.441644
rclavicle 4.47266e-015 1.43125e-014
rhumerus -33.972 -0.805697 -33.0661
rradius 49.4225
rwrist -1.82468
rhand -14.7956 -45.713
rfingers 7.12502
rthumb 11.3619 -75.3852
lclavicle 4.47266e-015 1.43125e-014
lhumerus -19.3338 6.74186 22.5629
lradius 33.1545
lwrist 23.676
lhand -24.9141 -23.664
lfingers 7.12502
lthumb 1.59449 6.30982
rfemur -99.7313 0.19397 25.5182
rtibia 116.388
rfoot 51.4196 3.09284
rtoes -3.84782
lfemur -27.2268 5.23471 -23.0227
ltibia 39.3695
lfoot -18.1332 6.87178
ltoes 14.573
340
root 5.08369 17.0705 2.23121 8.15217 -10.7891 -7.51769
lowerback 15.47 -1.24015 3.96345
upperback 3.60845 -0.919473 1.93862
thorax -4.86134 -0.498166 -0.0173954
lowerneck -15.289 -0.369602 -2.08517
upperneck 41.651 -0.244479 0.25859
head 18.14 -0.494548 0.419256
rclavicle 4.59193e-014 7.95139e-016
rhumerus -33.9756 -1.06444 -32.9507
rradius 48.8339
rwrist -1.23927
rhand -14.8777 -45.8637
rfingers 7.12502
rthumb 11.2827 -75.5403
lclavicle 4.59193e-014 7.95139e-016
lhumerus -19.8625 6.71405 22.7104
lradius 33.138
lwrist 23.5615
lhand -25.5553 -23.9596
lfingers 7.12502
lthumb 0.975255 6.01796
rfemur -99.9666 0.154075 25.7641
rtibia 116.143
rfoot 51.3941 2.28974
rtoes -2.36202
lfemur -27.2452 5.42091 -22.9007
ltibia 39.4326
lfoot -18.1506 6.72408
ltoes 14.4342
